#N canvas 524 192 521 251 10;
#N canvas 89 102 450 300 fiamme 0;
#X obj -3608 31 sel 0 1;
#X msg -3608 55 0;
#X obj -3665 224 *~;
#X obj -3665 97 clip~ -0.9 0.9;
#X obj -3665 119 hip~ 25;
#X obj -3665 75 hip~ 25;
#X obj -3665 53 *~ 80;
#X obj -3666 184 *~;
#X obj -3537 66 +~ 2;
#X obj -3664 6 inlet~;
#X obj -3608 6 inlet;
#X obj -3665 254 outlet~;
#X obj -3538 44 phasor~ 0.2;
#X obj -3537 112 *~;
#X obj -3537 88 *~ 0.4;
#X obj -3432 39 hip~ 30;
#X obj -3432 113 snapshot~;
#X obj -3354 76 tgl 15 0 empty empty empty 17 7 0 10 -262144 -1 -1
1 1;
#X floatatom -3432 135 5 0 0 0 - - -, f 5;
#X obj -3432 65 +~ 1.2;
#X obj -3432 87 *~ 0.5;
#X obj -3354 97 metro 40;
#X obj -3537 168 clip~ 0.0001 1;
#X obj -3537 134 *~ 900;
#X obj -3665 141 *~ 0.8;
#X msg -3577 56 0.2;
#X obj -3665 31 bp~ 20 9;
#X connect 0 0 1 0;
#X connect 0 1 25 0;
#X connect 1 0 2 1;
#X connect 2 0 11 0;
#X connect 3 0 4 0;
#X connect 4 0 24 0;
#X connect 5 0 3 0;
#X connect 6 0 5 0;
#X connect 7 0 2 0;
#X connect 8 0 14 0;
#X connect 9 0 15 0;
#X connect 9 0 26 0;
#X connect 10 0 0 0;
#X connect 12 0 8 0;
#X connect 13 0 23 0;
#X connect 14 0 13 0;
#X connect 14 0 13 1;
#X connect 15 0 19 0;
#X connect 16 0 18 0;
#X connect 16 0 12 0;
#X connect 17 0 21 0;
#X connect 19 0 20 0;
#X connect 20 0 16 0;
#X connect 21 0 16 0;
#X connect 22 0 7 1;
#X connect 23 0 22 0;
#X connect 24 0 7 0;
#X connect 25 0 2 1;
#X connect 26 0 6 0;
#X restore 309 110 pd fiamme;
#X obj 379 110 tgl 20 0 empty empty ON/OFF 17 7 0 10 -258113 -1 -1
1 1;
#N canvas 32 69 450 410 scoppiettio 0;
#X msg -7027 -467 bang;
#X obj -7137 -345 line~;
#X obj -7138 -292 *~;
#X obj -7058 -332 noise~;
#X obj -6890 -274 *~;
#X obj -7000 -333 line;
#X obj -7057 -308 lop~ 10000;
#X msg -7086 -361 0.003 \, 0 \$1;
#X msg -7000 -360 10000 \, 500 \$1;
#X msg -7137 -388 0.2 \, 0.003 20;
#X obj -7027 -439 delay 20;
#X obj -7027 -412 random 100;
#X obj -7027 -389 t f f;
#X obj -6906 -514 sel 0 1;
#X msg -6875 -489 0.1;
#X msg -6906 -490 0;
#X obj -7072 -543 env~;
#X obj -7072 -565 lop~ 4;
#X obj -7072 -521 moses 50;
#X obj -7027 -493 moses 51;
#X obj -7072 -590 inlet~;
#X obj -6906 -554 inlet;
#X obj -6890 -252 outlet~;
#X connect 0 0 9 0;
#X connect 0 0 10 0;
#X connect 1 0 2 0;
#X connect 2 0 4 0;
#X connect 3 0 6 0;
#X connect 4 0 22 0;
#X connect 5 0 6 1;
#X connect 6 0 2 1;
#X connect 7 0 1 0;
#X connect 8 0 5 0;
#X connect 9 0 1 0;
#X connect 10 0 11 0;
#X connect 11 0 12 0;
#X connect 12 0 7 0;
#X connect 12 1 8 0;
#X connect 13 0 15 0;
#X connect 13 1 14 0;
#X connect 14 0 4 1;
#X connect 15 0 4 1;
#X connect 16 0 18 0;
#X connect 17 0 16 0;
#X connect 18 1 19 0;
#X connect 19 0 0 0;
#X connect 20 0 17 0;
#X connect 21 0 13 0;
#X restore 21 106 pd scoppiettio;
#X obj 118 106 tgl 20 0 empty empty ON/OFF 17 7 0 10 -258113 -1 -1
1 1;
#N canvas 32 69 450 300 sibilo 0;
#X obj 80 179 *~;
#X obj 96 78 *~;
#X obj 96 108 *~;
#X obj 110 43 lop~ 10;
#X obj 36 43 hip~ 1000;
#X obj 96 153 *~ 900;
#X obj 143 196 *~;
#X obj 90 9 inlet~;
#X obj 158 20 inlet;
#X obj 142 232 outlet~;
#X connect 0 0 6 0;
#X connect 1 0 2 0;
#X connect 1 0 2 1;
#X connect 2 0 5 0;
#X connect 3 0 1 0;
#X connect 3 0 1 1;
#X connect 4 0 0 0;
#X connect 5 0 0 1;
#X connect 6 0 9 0;
#X connect 7 0 4 0;
#X connect 7 0 3 0;
#X connect 8 0 6 1;
#X restore 179 108 pd sibilo;
#X obj 246 108 tgl 20 0 empty empty ON/OFF 17 7 0 10 -258113 -1 -1
1 1;
#X obj 178 212 dac~;
#X obj 179 23 noise~;
#X connect 0 0 6 0;
#X connect 0 0 6 1;
#X connect 1 0 0 1;
#X connect 2 0 6 1;
#X connect 2 0 6 0;
#X connect 3 0 2 1;
#X connect 4 0 6 0;
#X connect 4 0 6 1;
#X connect 5 0 4 1;
#X connect 7 0 2 0;
#X connect 7 0 4 0;
#X connect 7 0 0 0;
